<svg id="visual" viewBox="0 0 900 600" width="900" height="600" xmlns="http://www.w3.org/2000/svg" xmlns:xlink="http://www.w3.org/1999/xlink" version="1.1"><path d="M0 115L82 115L82 121L164 121L164 145L245 145L245 241L327 241L327 181L409 181L409 103L491 103L491 223L573 223L573 223L655 223L655 319L736 319L736 127L818 127L818 151L900 151L900 259L900 0L900 0L818 0L818 0L736 0L736 0L655 0L655 0L573 0L573 0L491 0L491 0L409 0L409 0L327 0L327 0L245 0L245 0L164 0L164 0L82 0L82 0L0 0Z" fill="#d5817b"></path><path d="M0 301L82 301L82 301L164 301L164 325L245 325L245 373L327 373L327 277L409 277L409 355L491 355L491 343L573 343L573 421L655 421L655 433L736 433L736 337L818 337L818 367L900 367L900 367L900 257L900 149L818 149L818 125L736 125L736 317L655 317L655 221L573 221L573 221L491 221L491 101L409 101L409 179L327 179L327 239L245 239L245 143L164 143L164 119L82 119L82 113L0 113Z" fill="#c86f74"></path><path d="M0 397L82 397L82 373L164 373L164 403L245 403L245 475L327 475L327 391L409 391L409 457L491 457L491 409L573 409L573 481L655 481L655 475L736 475L736 397L818 397L818 451L900 451L900 457L900 365L900 365L818 365L818 335L736 335L736 431L655 431L655 419L573 419L573 341L491 341L491 353L409 353L409 275L327 275L327 371L245 371L245 323L164 323L164 299L82 299L82 299L0 299Z" fill="#b95e6e"></path><path d="M0 547L82 547L82 511L164 511L164 541L245 541L245 523L327 523L327 529L409 529L409 547L491 547L491 517L573 517L573 559L655 559L655 535L736 535L736 529L818 529L818 541L900 541L900 517L900 455L900 449L818 449L818 395L736 395L736 473L655 473L655 479L573 479L573 407L491 407L491 455L409 455L409 389L327 389L327 473L245 473L245 401L164 401L164 371L82 371L82 395L0 395Z" fill="#a94e69"></path><path d="M0 601L82 601L82 601L164 601L164 601L245 601L245 601L327 601L327 601L409 601L409 601L491 601L491 601L573 601L573 601L655 601L655 601L736 601L736 601L818 601L818 601L900 601L900 601L900 515L900 539L818 539L818 527L736 527L736 533L655 533L655 557L573 557L573 515L491 515L491 545L409 545L409 527L327 527L327 521L245 521L245 539L164 539L164 509L82 509L82 545L0 545Z" fill="#983e65"></path></svg>